<svg width="201" height="60" viewBox="0 0 201 60" fill="none" xmlns="http://www.w3.org/2000/svg">
<path d="M144.879 49.5255L155.656 60L166.839 49.5255H159.926V45.2543H151.792V49.5255H144.879Z" fill="#27B6C4"/>
<path d="M166.839 10.4746L156.063 0L144.879 10.4746H151.792V14.7458H159.926V10.4746H166.839Z" fill="#27B6C4"/>
<path d="M160.434 29.7966L150.979 43.017H142.947V17.5933H151.284V31.1187L160.536 17.5933H168.771V43.1187H160.434V29.7966Z" fill="#363533"/>
<path d="M55.1047 34.7797C55.1047 39.6611 51.4446 43.017 45.5478 43.017H35.9909H32.5342V17.4916H40.8711H52.563V24.5085H40.9727V26.7458H45.5478C51.4446 26.7458 55.1047 29.8984 55.1047 34.7797ZM46.7679 34.7797C46.7679 33.7628 46.0562 33.1526 44.9378 33.1526H40.9727V36.4068H44.9378C46.0562 36.4068 46.7679 35.7967 46.7679 34.7797Z" fill="#27B6C4"/>
<path d="M80.7256 24.5085H73.7104V42.9153H65.3736V24.5085H58.3584V17.4916H73.7104H80.7256V24.5085Z" fill="#363533"/>
<path d="M110.514 26.6441C110.514 32.339 105.736 35.7967 99.8392 35.7967H94.8574V43.017H86.5205V17.4916H94.8574H99.8392C105.736 17.4916 110.514 20.9492 110.514 26.6441ZM102.178 26.6441C102.178 25.3221 101.161 24.6102 99.8392 24.6102H94.8574V28.7797H99.8392C101.161 28.678 102.178 27.8645 102.178 26.6441Z" fill="#363533"/>
<path d="M136.644 36.2034V42.9153H118.648H116.106V17.4916H124.443H136.644V24.2034H124.443V27.0509H136.644V33.2543H124.443V36.3051H136.644V36.2034Z" fill="#363533"/>
<path d="M201 30.2034C201 37.4238 194.9 42.9153 186.766 42.9153H177.311H174.871V17.4916H183.615H186.766C194.9 17.4916 201 22.9831 201 30.2034ZM192.663 30.2034C192.663 26.8475 190.223 24.5085 186.868 24.5085H183.716V35.8984H186.868C190.223 35.8984 192.663 33.5594 192.663 30.2034Z" fill="#363533"/>
<path d="M0 30C0 37.2203 6.10015 42.7118 14.2337 42.7118H23.8923H26.434V17.2881H17.6904H14.2337C6.10015 17.2881 0 22.7796 0 30ZM8.33687 30C8.33687 26.644 10.7769 24.305 14.132 24.305H17.5888V35.6949H14.2337C10.7769 35.6949 8.33687 33.4576 8.33687 30Z" fill="#27B6C4"/>
</svg>
